<svg width="97" height="53" viewBox="0 0 97 53" fill="none" xmlns="http://www.w3.org/2000/svg">
<path opacity="0.7" d="M2.30003 2.39993C2.10003 2.39993 1.90002 2.29993 1.90002 1.99993V1.69993C1.90002 1.49993 2.00003 1.29993 2.30003 1.29993H12.5C12.7 1.29993 12.9 1.39993 12.9 1.69993V1.99993C12.9 2.19993 12.8 2.39993 12.5 2.39993H2.30003Z" fill="#007293" stroke="#007293" stroke-miterlimit="10"/>
<path opacity="0.7" d="M2.30003 9.19998C2.10003 9.19998 1.90002 9.09998 1.90002 8.79998V8.49998C1.90002 8.29998 2.00003 8.09998 2.30003 8.09998H12.5C12.7 8.09998 12.9 8.19998 12.9 8.49998V8.79998C12.9 8.99998 12.8 9.19998 12.5 9.19998H2.30003Z" fill="#007293" stroke="#007293" stroke-miterlimit="10"/>
<path opacity="0.7" d="M11.6 24.7999V23C11.6 22.8 11.7 22.5999 12 22.5999H12.5C12.7 22.5999 12.9 22.7 12.9 23V37.4C12.9 38.5 13.1 39.2999 13.5 39.5999C13.9 39.9999 14.5 40.1999 15.3 40.1999H16.9C17.4 40.1999 17.8 40.2 18.1 40.3C18.4 40.4 18.5 40.5 18.5 40.8C18.5 41.1 18.4 41.3 18.1 41.3C17.8 41.4 17.5 41.4 16.9 41.4H15C14.7 41.4 14.3 41.4 14 41.3C13.6 41.2 13.3 41.1 12.9 40.8C12.6 40.5 12.3 40.1999 12.1 39.6999C11.9 39.1999 11.8 38.4999 11.8 37.6999C11.3 38.1999 10.8 38.6 10 39C9.30003 39.2999 8.20002 39.5 6.90002 39.5C2.90002 39.5 0.900024 37.2 0.900024 32.5C0.900024 29.8 1.50004 27.7999 2.60004 26.5999C3.70004 25.3999 5.30003 24.7999 7.30003 24.7999H11.6ZM6.80003 38.1999C7.80003 38.1999 8.60003 38.1 9.20003 37.9C9.80003 37.7 10.3 37.4999 10.7 37.1999C11.1 36.8999 11.3 36.5 11.5 36C11.6 35.5 11.7 35.1 11.7 34.5V25.9H7.00003C5.30003 25.9 4.00003 26.4 3.20003 27.5C2.40003 28.6 2.00003 30.2 2.00003 32.3C2.00003 34.2 2.40003 35.6999 3.20003 36.6999C3.90003 37.6999 5.10003 38.1999 6.80003 38.1999ZM5.30003 19.5999C5.10003 19.5999 4.90002 19.5 4.90002 19.2V17.5999C4.90002 17.3999 5.00003 17.2 5.30003 17.2H6.30003C6.50003 17.2 6.70003 17.2999 6.70003 17.5999V19.2C6.70003 19.4 6.60003 19.5999 6.30003 19.5999H5.30003ZM9.30003 19.5999C9.10003 19.5999 8.90002 19.5 8.90002 19.2V17.5999C8.90002 17.3999 9.00003 17.2 9.30003 17.2H10.3C10.5 17.2 10.7 17.2999 10.7 17.5999V19.2C10.7 19.4 10.6 19.5999 10.3 19.5999H9.30003Z" fill="#007293" stroke="#007293" stroke-miterlimit="10"/>
<path opacity="0.7" d="M16.8001 41.4C16.3001 41.4 15.9001 41.4 15.8001 41.3C15.7001 41.2 15.6001 41.1 15.6001 40.9C15.6001 40.7 15.7001 40.5 15.8001 40.4C15.9001 40.3 16.3001 40.2 16.8001 40.2H20.5001C21.0001 40.2 21.4001 40.2 21.6001 40.3C21.8001 40.4 21.9001 40.5 21.9001 40.8C21.9001 41 21.8001 41.2 21.6001 41.3C21.4001 41.4 21.0001 41.4 20.5001 41.4H16.8001Z" fill="#007293" stroke="#007293" stroke-miterlimit="10"/>
<path opacity="0.7" d="M18.8001 41.4C18.3001 41.4 17.9001 41.4 17.8001 41.3C17.7001 41.2 17.6001 41.1 17.6001 40.9C17.6001 40.7 17.7001 40.5 17.8001 40.4C17.9001 40.3 18.3001 40.2 18.8001 40.2H22.5001C23.0001 40.2 23.4001 40.2 23.6001 40.3C23.8001 40.4 23.9001 40.5 23.9001 40.8C23.9001 41 23.8001 41.2 23.6001 41.3C23.4001 41.4 23.0001 41.4 22.5001 41.4H18.8001Z" fill="#007293" stroke="#007293" stroke-miterlimit="10"/>
<path opacity="0.7" d="M25.6001 40.2C26.3001 40.2 26.9001 40.1 27.3001 40C27.7001 39.9 28.1001 39.6 28.3001 39.3C28.5001 39 28.7001 38.5 28.8001 38C28.9001 37.5 28.9001 36.8 28.9001 36V26C28.9001 25.8 29.0001 25.6 29.3001 25.6H29.8001C30.0001 25.6 30.2001 25.7 30.2001 26V36.9C30.2001 38.1 30.6001 38.9 31.3001 39.5C32.0001 40 33.0001 40.3 34.3001 40.3C34.8001 40.3 35.2001 40.3 35.5001 40.4C35.8001 40.5 35.9001 40.6 35.9001 40.9C35.9001 41.1 35.8001 41.3 35.5001 41.4C35.2001 41.5 34.9001 41.5 34.3001 41.5C32.9001 41.5 31.9001 41.3 31.2001 40.8C30.5001 40.3 30.0001 39.9 29.8001 39.4C29.6001 39.9 29.4001 40.3 29.1001 40.5C28.8001 40.8 28.5001 41 28.2001 41.1C27.9001 41.2 27.5001 41.3 27.1001 41.4C26.7001 41.5 26.4001 41.5 26.0001 41.5H22.1001C21.8001 41.5 21.6001 41.5 21.4001 41.4C21.2001 41.3 21.1001 41.2 21.1001 41C21.1001 40.7 21.2001 40.5 21.5001 40.5C21.8001 40.4 22.1001 40.4 22.7001 40.4H25.6001V40.2ZM27.0001 47.2C26.8001 47.2 26.6001 47.1 26.6001 46.8V45.2C26.6001 45 26.7001 44.8 27.0001 44.8H28.0001C28.2001 44.8 28.4001 44.9 28.4001 45.2V46.8C28.4001 47 28.3001 47.2 28.0001 47.2H27.0001ZM31.0001 47.2C30.8001 47.2 30.6001 47.1 30.6001 46.8V45.2C30.6001 45 30.7001 44.8 31.0001 44.8H32.0001C32.2001 44.8 32.4001 44.9 32.4001 45.2V46.8C32.4001 47 32.3001 47.2 32.0001 47.2H31.0001Z" fill="#007293" stroke="#007293" stroke-miterlimit="10"/>
<path opacity="0.7" d="M34.2001 51.7C34.0001 51.7 33.8 51.6 33.8 51.3V51C33.8 50.8 33.9001 50.6 34.2001 50.6H44.4001C44.6001 50.6 44.8 50.7 44.8 51V51.3C44.8 51.5 44.7001 51.7 44.4001 51.7H34.2001Z" fill="#007293" stroke="#007293" stroke-miterlimit="10"/>
<path opacity="0.7" d="M36.3001 40.2C37.0001 40.2 37.6001 40.1 38.0001 40C38.4001 39.9 38.8001 39.6 39.0001 39.3C39.2001 39 39.4001 38.5 39.5001 38C39.6001 37.5 39.6001 36.8 39.6001 36V26C39.6001 25.8 39.7001 25.6 40.0001 25.6H40.5001C40.7001 25.6 40.9001 25.7 40.9001 26V36.6C40.9001 37.7 40.8001 38.6 40.5001 39.3C40.2001 40 39.9001 40.5 39.5001 40.8C39.1001 41.1 38.7001 41.4 38.2001 41.5C37.7001 41.6 37.2001 41.6 36.7001 41.6H33.6001C33.3001 41.6 33.1001 41.6 32.9001 41.5C32.7001 41.4 32.6001 41.3 32.6001 41.1C32.6001 40.8 32.7001 40.6 33.0001 40.6C33.3001 40.5 33.6001 40.5 34.2001 40.5H36.3001V40.2ZM39.4001 47C39.2001 47 39.0001 46.9 39.0001 46.6V45C39.0001 44.8 39.1001 44.6 39.4001 44.6H40.4001C40.6001 44.6 40.8001 44.7 40.8001 45V46.6C40.8001 46.8 40.7001 47 40.4001 47H39.4001Z" fill="#007293" stroke="#007293" stroke-miterlimit="10"/>
<path opacity="0.7" d="M46.2001 8.39993C46.0001 8.39993 45.8 8.29993 45.8 7.99993V7.69993C45.8 7.49993 45.9001 7.29993 46.2001 7.29993H56.4001C56.6001 7.29993 56.8 7.39993 56.8 7.69993V7.99993C56.8 8.19993 56.7001 8.39993 56.4001 8.39993H46.2001Z" fill="#007293" stroke="#007293" stroke-miterlimit="10"/>
<path opacity="0.7" d="M46.2001 15.2C46.0001 15.2 45.8 15.1 45.8 14.8V14.5C45.8 14.3 45.9001 14.1 46.2001 14.1H56.4001C56.6001 14.1 56.8 14.2 56.8 14.5V14.8C56.8 15 56.7001 15.2 56.4001 15.2H46.2001Z" fill="#007293" stroke="#007293" stroke-miterlimit="10"/>
<path opacity="0.7" d="M51.2 43.9999C51.2 45.5999 50.8 46.8999 50.1 47.7999C49.4 48.6999 48.1 49.1999 46.5 49.1999H45.8C45.6 49.1999 45.4 49.0999 45.4 48.7999V48.2999C45.4 48.0999 45.5 47.8999 45.8 47.8999H46.6C47.7 47.8999 48.6 47.5999 49.2 47.0999C49.8 46.5999 50.1 45.5999 50.1 44.2999V25.7999C50.1 25.5999 50.2 25.3999 50.5 25.3999H51C51.2 25.3999 51.4 25.4999 51.4 25.7999V36.6999C51.4 37.8999 51.8 38.6999 52.5 39.2999C53.2 39.7999 54.2 40.0999 55.5 40.0999C56 40.0999 56.4 40.0999 56.7 40.1999C57 40.2999 57.1 40.3999 57.1 40.6999C57.1 40.8999 57 41.0999 56.7 41.1999C56.4 41.2999 56.1 41.2999 55.5 41.2999C54.6 41.2999 53.9 41.1999 53.2 40.8999C52.5 40.5999 51.9 40.1999 51.4 39.5999V43.9999H51.2Z" fill="#007293" stroke="#007293" stroke-miterlimit="10"/>
<path opacity="0.7" d="M61.3 15.2C61.1 15.2 60.9 15.1 60.9 14.8V14.5C60.9 14.3 61 14.1 61.3 14.1H71.5C71.7 14.1 71.9 14.2 71.9 14.5V14.8C71.9 15 71.8 15.2 71.5 15.2H61.3Z" fill="#007293" stroke="#007293" stroke-miterlimit="10"/>
<path opacity="0.7" d="M65.8 24.7999C68.1 24.7999 69.9 25.3 71.1 26.3C72.3 27.3 72.9 28.7999 72.9 30.6999C72.9 31.5999 72.8 32.5 72.5 33.4C72.2 34.3 71.8 35.1 71.3 35.9C70.8 36.7 70.2 37.4 69.6 38C68.9 38.6 68.3 39.1999 67.5 39.5999C67.7 39.6999 67.9 39.8 68.2 39.8C68.5 39.9 68.9 39.9 69.2 40C69.6 40 69.9 40.0999 70.3 40.0999C70.7 40.0999 71 40.0999 71.2 40.0999H75.6C76.4 40.0999 76.9 40.2 77.1 40.3C77.3 40.4 77.4 40.5999 77.4 40.6999C77.4 40.8999 77.3 41.0999 77 41.1999C76.8 41.2999 76.3 41.3 75.6 41.3H70.7C69.8 41.3 68.9 41.1999 68.1 41.0999C67.3 40.9999 66.6 40.7 65.9 40.3C65.4 40.5 65 40.7 64.4 40.8C63.9 40.9 63.4 40.9999 62.8 41.0999C62.3 41.1999 61.8 41.1999 61.3 41.1999C60.8 41.1999 60.4 41.1999 60 41.1999H55.2C54.6 41.1999 54.2 41.1999 53.9 41.0999C53.7 40.9999 53.5 40.8999 53.5 40.5999C53.5 40.3999 53.6 40.1999 53.8 40.0999C54 39.9999 54.4 39.9 55.2 39.9H60.3C61.3 39.9 62.3 39.7999 63.3 39.5999C64.2 39.3999 65 39.2 65.5 38.9C65.2 37.7 64.9 36.5999 64.4 35.5999C63.9 34.5999 63.4 33.7 62.8 32.9C62.2 32.1 61.6 31.3999 60.9 30.6999C60.2 30.0999 59.6 29.5 58.9 29C58.8 28.9 58.6 28.7999 58.5 28.6999C58.4 28.5999 58.3 28.5 58.3 28.4V27C58.3 26.9 58.5 26.7 58.9 26.4C59.3 26.1 59.8 25.8 60.5 25.5C61.2 25.2 62 24.9 62.9 24.7C63.8 24.9 64.8 24.7999 65.8 24.7999ZM65.8 26C65 26 64.2 26.1 63.5 26.3C62.8 26.5 62.1 26.7 61.6 26.9C61 27.1 60.6 27.3999 60.2 27.5999C59.8 27.7999 59.5 27.9999 59.4 28.0999C60.2 28.6999 61 29.3 61.8 30C62.5 30.7 63.2 31.5 63.9 32.4C64.5 33.3 65.1 34.2 65.6 35.3C66.1 36.4 66.5 37.5 66.8 38.8C67.4 38.5 68.1 38 68.7 37.4C69.3 36.8 69.9 36.2 70.3 35.5C70.8 34.8 71.2 33.9999 71.4 33.1999C71.7 32.3999 71.8 31.4999 71.8 30.6999C71.8 29.1999 71.3 27.9999 70.2 27.1999C69.1 26.3999 67.6 26 65.8 26Z" fill="#007293" stroke="#007293" stroke-miterlimit="10"/>
<path opacity="0.7" d="M79.1001 10.4999C78.5001 9.99993 78.2001 9.19993 78.2001 8.29993C78.2001 7.39993 78.5001 6.59993 79.1001 6.09993C79.7001 5.59993 80.4001 5.29993 81.2001 5.29993C82.0001 5.29993 82.7 5.59993 83.3 6.09993C83.9 6.69993 84.2001 7.39993 84.2001 8.29993C84.2001 9.19993 83.9 9.89993 83.3 10.4999C82.7 11.0999 82.0001 11.2999 81.2001 11.2999C80.4001 11.2999 79.7001 10.9999 79.1001 10.4999ZM79.4001 8.19993C79.4001 8.79993 79.6001 9.19993 79.9001 9.49993C80.2001 9.79993 80.7001 9.99993 81.2001 9.99993C81.7001 9.99993 82.1001 9.79993 82.5001 9.49993C82.8001 9.19993 83.0001 8.69993 83.0001 8.19993C83.0001 7.69993 82.8001 7.19993 82.5001 6.89993C82.2001 6.59993 81.7001 6.39993 81.2001 6.39993C80.6001 6.39993 80.2001 6.59993 79.9001 6.89993C79.6001 7.19993 79.4001 7.69993 79.4001 8.19993Z" fill="#007293" stroke="#007293" stroke-miterlimit="10"/>
<path opacity="0.7" d="M77.7001 40.2C78.4001 40.2 79.0001 40.1 79.4001 40C79.8001 39.9 80.2001 39.6 80.4001 39.3C80.6001 39 80.8001 38.5 80.9001 38C81.0001 37.5 81.0001 36.8 81.0001 36V14.5C81.0001 14.3 81.1001 14.1 81.4001 14.1H81.9001C82.1001 14.1 82.3001 14.2 82.3001 14.5V36.4C82.3001 37.5 82.2001 38.4 81.9001 39.1C81.6001 39.8 81.3001 40.3 80.9001 40.6C80.5001 40.9 80.1001 41.2 79.6001 41.3C79.1001 41.4 78.6001 41.4 78.1001 41.4H75.1001C74.8001 41.4 74.6001 41.4 74.4001 41.3C74.2001 41.2 74.1001 41.1 74.1001 40.9C74.1001 40.6 74.2001 40.4 74.5001 40.4C74.8001 40.3 75.1001 40.3 75.7001 40.3H77.7001V40.2Z" fill="#007293" stroke="#007293" stroke-miterlimit="10"/>
<path opacity="0.7" d="M85.9 11.2C85.7 11.2 85.5 11.1 85.5 10.8V10.5C85.5 10.3 85.6 10.1 85.9 10.1H96.1C96.3 10.1 96.5 10.2 96.5 10.5V10.8C96.5 11 96.4 11.2 96.1 11.2H85.9Z" fill="#007293" stroke="#007293" stroke-miterlimit="10"/>
<path opacity="0.7" d="M90.4 41.4C90.2 41.4 90 41.3 90 41V14.5C90 14.3 90.1 14.1 90.4 14.1H90.9C91.1 14.1 91.3 14.2 91.3 14.5V41C91.3 41.2 91.2 41.4 90.9 41.4H90.4Z" fill="#007293" stroke="#007293" stroke-miterlimit="10"/>
</svg>
