<svg width="73" height="73" viewBox="0 0 73 73" fill="none" xmlns="http://www.w3.org/2000/svg">
<path d="M36.2 72.5C26.5 72.5 17.4 68.7 10.6 61.9C-3.49998 47.8 -3.49998 24.8 10.6 10.7C17.4 3.8 26.5 0 36.2 0C45.9 0 55 3.8 61.8 10.6C68.6 17.4 72.4 26.5 72.4 36.2C72.4 45.9 68.6 55 61.8 61.8C55 68.7 45.9 72.5 36.2 72.5ZM36.2 1.5C27.3 1.5 18.4 4.9 11.6 11.7C-1.89997 25.2 -1.89997 47.3 11.6 60.8C18.2 67.4 26.9 71 36.2 71C45.5 71 54.2 67.4 60.8 60.8C67.3 54.2 71 45.5 71 36.2C71 26.9 67.4 18.2 60.8 11.6C54 4.9 45.1 1.5 36.2 1.5Z" fill="white"/>
<path d="M52.8391 50.531L18.4391 16.131C18.0391 15.731 17.2391 15.731 16.8391 16.131L16.7391 16.231C15.6391 17.731 15.0391 19.531 15.0391 21.431C14.9391 25.531 17.0391 29.831 21.3391 34.131L29.9391 42.731C31.4391 44.231 33.9391 44.231 35.5391 42.731C35.5391 42.631 35.7391 42.631 35.8391 42.731L37.2391 44.131C37.3391 44.231 37.2391 44.331 37.2391 44.431C36.5391 45.931 36.8391 47.631 37.9391 48.831L46.2391 57.131C48.1391 58.931 51.0391 58.831 52.8391 56.931C54.5391 55.131 54.5391 52.331 52.8391 50.531ZM51.1391 55.531C50.2391 56.431 48.7391 56.431 47.8391 55.531L39.5391 47.231C39.0391 46.731 38.9391 46.031 39.2391 45.431C39.7391 44.431 39.5391 43.331 38.8391 42.531L37.4391 41.131C36.4391 40.131 34.8391 40.131 33.8391 41.131C33.2391 41.731 32.1391 41.731 31.5391 41.131L22.9391 32.531C16.2391 25.831 17.0391 21.031 17.8391 18.831L51.1391 52.131C52.1391 53.131 52.1391 54.531 51.1391 55.531C51.1391 55.431 51.1391 55.531 51.1391 55.531Z" fill="white"/>
<path d="M53.825 18.513C53.425 18.113 52.625 18.113 52.225 18.513L44.925 25.813C44.425 26.213 44.425 27.013 44.825 27.413C45.225 27.913 46.025 27.913 46.425 27.513C46.425 27.513 46.425 27.513 46.525 27.413L53.825 20.113C54.325 19.613 54.325 18.913 53.825 18.513Z" fill="white"/>
<path d="M50.71 14.426C50.31 14.026 49.51 14.026 49.11 14.426L41.61 21.926C40.51 22.926 39.81 24.426 39.71 25.926L39.61 28.026L37.51 30.126C37.01 30.526 37.01 31.326 37.41 31.726C37.81 32.226 38.61 32.226 39.01 31.826L39.11 31.726L41.51 29.326C41.71 29.126 41.81 28.826 41.81 28.526L41.91 25.926C42.01 25.026 42.41 24.126 43.11 23.526L50.61 16.026C51.21 15.626 51.21 14.826 50.71 14.426Z" fill="white"/>
<path d="M31.016 46.21C30.616 45.81 29.816 45.81 29.416 46.21L20.216 55.41C19.316 56.31 17.816 56.31 16.916 55.41C16.016 54.51 16.016 53.01 16.916 52.11L25.816 43.21C26.316 42.81 26.316 42.01 25.916 41.61C25.516 41.11 24.716 41.11 24.316 41.51L24.216 41.61L15.316 50.51C13.516 52.41 13.616 55.31 15.516 57.11C17.316 58.81 20.116 58.81 21.916 57.11L31.116 47.91C31.516 47.41 31.516 46.61 31.016 46.21Z" fill="white"/>
<path d="M58.038 21.783C57.638 21.383 56.838 21.383 56.438 21.783L48.938 29.283C48.338 29.983 47.438 30.383 46.438 30.383H43.738C43.438 30.383 43.138 30.483 42.938 30.683L40.538 33.083C40.038 33.483 40.038 34.283 40.438 34.683C40.838 35.183 41.638 35.183 42.038 34.783L42.138 34.683L44.238 32.583H46.438C48.038 32.583 49.438 31.883 50.538 30.783L58.038 23.383C58.538 22.983 58.538 22.183 58.038 21.783Z" fill="white"/>
</svg>
