<svg width="141" height="36" viewBox="0 0 141 36" fill="none" xmlns="http://www.w3.org/2000/svg">
<path d="M18.3 2.59998V5.49998H3.90002V13.7H17.3V16.6H3.90002V25.5H18.4V28.4H0.400024V2.59998H18.3Z" fill="#007293"/>
<path d="M26.2 9.69993V12.6999H26.3C27.6 10.3999 29.6 9.29993 32.4 9.29993C33.6 9.29993 34.7 9.49993 35.5 9.79993C36.3 10.0999 37 10.5999 37.5 11.1999C38 11.7999 38.4 12.4999 38.6 13.2999C38.8 14.0999 38.9 15.0999 38.9 16.0999V28.3999H35.8V15.6999C35.8 14.4999 35.5 13.5999 34.8 12.9999C34.1 12.2999 33.2 11.9999 32 11.9999C31.1 11.9999 30.2 12.0999 29.6 12.3999C29 12.6999 28.3 13.0999 27.9 13.5999C27.4 14.0999 27.1 14.6999 26.9 15.4999C26.7 16.1999 26.6 16.9999 26.6 17.7999V28.2999H23.5V9.69993H26.2Z" fill="#007293"/>
<path d="M58.6 33.5999C57.2 35.0999 55 35.8999 52 35.8999C51.1 35.8999 50.2 35.7999 49.3 35.5999C48.4 35.3999 47.6 35.0999 46.8 34.6999C46.1 34.2999 45.5 33.6999 45 32.9999C44.5 32.2999 44.3 31.3999 44.2 30.3999H47.3C47.3 30.9999 47.5 31.3999 47.8 31.7999C48.1 32.1999 48.5 32.4999 49 32.6999C49.5 32.8999 50 33.0999 50.5 33.1999C51.1 33.2999 51.6 33.3999 52.1 33.3999C53.1 33.3999 54 33.1999 54.7 32.8999C55.4 32.5999 56 32.0999 56.4 31.4999C56.9 30.8999 57.2 30.0999 57.4 29.2999C57.6 28.3999 57.7 27.4999 57.7 26.3999V25.1999H57.6C57.1 26.3999 56.3 27.1999 55.2 27.6999C54.1 28.1999 53 28.4999 51.8 28.4999C50.4 28.4999 49.2 28.1999 48.2 27.6999C47.2 27.1999 46.3 26.4999 45.6 25.6999C44.9 24.7999 44.4 23.7999 44 22.6999C43.7 21.5999 43.5 20.2999 43.5 19.0999C43.5 17.9999 43.6 16.8999 43.9 15.6999C44.2 14.4999 44.7 13.4999 45.3 12.4999C46 11.4999 46.9 10.7999 48 10.1999C49.1 9.59993 50.5 9.29993 52.1 9.29993C53.3 9.29993 54.4 9.59993 55.4 10.0999C56.4 10.5999 57.2 11.3999 57.7 12.3999V9.69993H60.6V26.7999C60.7 29.7999 60 32.0999 58.6 33.5999ZM54.7 25.1999C55.4 24.7999 56 24.1999 56.4 23.4999C56.8 22.7999 57.2 21.9999 57.4 21.1999C57.6 20.2999 57.7 19.4999 57.7 18.5999C57.7 17.7999 57.6 16.9999 57.4 16.1999C57.2 15.3999 56.9 14.6999 56.5 14.0999C56.1 13.4999 55.5 12.9999 54.9 12.5999C54.2 12.1999 53.4 11.9999 52.4 11.9999C51.4 11.9999 50.6 12.1999 49.9 12.5999C49.2 12.9999 48.6 13.4999 48.2 14.0999C47.8 14.6999 47.4 15.3999 47.2 16.2999C47 17.0999 46.9 17.9999 46.9 18.8999C46.9 19.6999 47 20.5999 47.2 21.3999C47.4 22.1999 47.7 22.9999 48.1 23.6999C48.5 24.3999 49.1 24.8999 49.7 25.3999C50.4 25.7999 51.2 25.9999 52.2 25.9999C53.2 25.9999 54 25.6999 54.7 25.1999Z" fill="#007293"/>
<path d="M69.9 2.59998V28.4H66.8V2.59998H69.9Z" fill="#007293"/>
<path d="M76.1 6.29988V2.49988H79.2V6.29988H76.1ZM79.2 9.69988V28.3999H76.1V9.69988H79.2Z" fill="#007293"/>
<path d="M87.5 24.1999C87.8 24.6999 88.2 24.9999 88.6 25.2999C89.1 25.5999 89.6 25.7999 90.2 25.8999C90.8 25.9999 91.4 26.0999 92 26.0999C92.5 26.0999 93 26.0999 93.5 25.9999C94 25.8999 94.5 25.7999 95 25.5999C95.4 25.3999 95.8 25.0999 96.1 24.7999C96.4 24.3999 96.5 23.9999 96.5 23.3999C96.5 22.5999 96.2 21.9999 95.6 21.5999C95 21.1999 94.2 20.8999 93.3 20.5999C92.4 20.2999 91.4 20.0999 90.4 19.8999C89.3 19.6999 88.4 19.3999 87.5 18.9999C86.6 18.5999 85.8 18.0999 85.2 17.3999C84.6 16.6999 84.3 15.7999 84.3 14.5999C84.3 13.6999 84.5 12.8999 84.9 12.1999C85.3 11.4999 85.9 10.9999 86.5 10.5999C87.2 10.1999 87.9 9.8999 88.7 9.6999C89.5 9.4999 90.4 9.3999 91.2 9.3999C92.3 9.3999 93.2 9.4999 94.1 9.6999C95 9.8999 95.8 10.1999 96.5 10.5999C97.2 10.9999 97.7 11.5999 98.1 12.3999C98.5 13.1999 98.7 14.0999 98.8 15.1999H95.7C95.7 14.5999 95.5 14.0999 95.2 13.6999C94.9 13.2999 94.6 12.9999 94.2 12.6999C93.8 12.3999 93.3 12.2999 92.8 12.1999C92.3 12.0999 91.8 11.9999 91.3 11.9999C90.8 11.9999 90.4 11.9999 89.9 12.0999C89.4 12.1999 89 12.2999 88.6 12.4999C88.2 12.6999 87.9 12.8999 87.7 13.1999C87.5 13.4999 87.3 13.8999 87.3 14.3999C87.3 14.8999 87.5 15.3999 87.9 15.6999C88.3 15.9999 88.7 16.2999 89.3 16.5999C89.9 16.7999 90.5 16.9999 91.3 17.1999C92 17.3999 92.7 17.4999 93.5 17.6999C94.3 17.8999 95 18.0999 95.8 18.2999C96.5 18.4999 97.2 18.8999 97.8 19.2999C98.4 19.6999 98.8 20.1999 99.2 20.7999C99.5 21.3999 99.7 22.0999 99.7 22.9999C99.7 24.0999 99.5 25.0999 99 25.7999C98.5 26.4999 97.9 27.0999 97.2 27.5999C96.4 28.0999 95.6 28.3999 94.6 28.5999C93.6 28.7999 92.7 28.8999 91.8 28.8999C90.8 28.8999 89.8 28.7999 88.8 28.5999C87.9 28.3999 87 27.9999 86.3 27.4999C85.6 26.9999 85 26.3999 84.6 25.4999C84.2 24.6999 83.9 23.6999 83.9 22.5999H87C87.1 23.0999 87.2 23.6999 87.5 24.1999Z" fill="#007293"/>
<path d="M107.6 2.59998V12.5H107.7C107.9 11.9 108.3 11.4 108.7 11C109.1 10.6 109.6 10.3 110.2 9.99998C110.7 9.69998 111.3 9.59998 111.9 9.39998C112.5 9.29998 113.1 9.19998 113.6 9.19998C114.8 9.19998 115.9 9.39998 116.7 9.69998C117.5 9.99998 118.2 10.5 118.7 11.1C119.2 11.7 119.6 12.4 119.8 13.2C120 14 120.1 15 120.1 16V28.3H117V15.7C117 14.5 116.7 13.6 116 13C115.3 12.3 114.4 12 113.2 12C112.3 12 111.4 12.1 110.8 12.4C110.2 12.7 109.5 13.1 109.1 13.6C108.6 14.1 108.3 14.7 108.1 15.5C107.9 16.2 107.8 17 107.8 17.8V28.3H104.7V2.59998H107.6Z" fill="#007293"/>
<path d="M140.1 -0.00012207V35.9999H137.6V-0.00012207H140.1Z" fill="#007293"/>
</svg>
