<svg width="73" height="73" viewBox="0 0 73 73" fill="none" xmlns="http://www.w3.org/2000/svg">
<path d="M36.2 72.5C26.5 72.5 17.4 68.7 10.6 61.9C3.8 55 0 45.9 0 36.2C0 26.5 3.8 17.4 10.6 10.6C17.5 3.8 26.6 0 36.2 0C45.9 0 55 3.8 61.9 10.6C76 24.7 76 47.7 61.9 61.9C55 68.7 45.9 72.5 36.2 72.5ZM36.2 1.5C27.3 1.5 18.4 4.9 11.6 11.7C5.1 18.2 1.5 27 1.5 36.2C1.5 45.4 5.1 54.2 11.7 60.8C18.2 67.4 27 71 36.2 71C45.5 71 54.2 67.4 60.8 60.8C74.3 47.3 74.3 25.2 60.8 11.7C54 4.9 45.1 1.5 36.2 1.5Z" fill="white"/>
<path d="M27 61.915C26.8 61.915 26.6 61.815 26.4 61.715L10.8 46.015C10.5 45.715 10.5 45.215 10.8 44.915L44.9 10.815C45.2 10.515 45.7 10.515 46 10.815L61.7 26.515C62 26.815 62 27.315 61.7 27.615L27.6 61.715C27.4 61.815 27.2 61.915 27 61.915ZM12.4 45.415L27 60.015L60 27.015L45.5 12.415L12.4 45.415Z" fill="white"/>
<path d="M43.428 21.738C43.228 21.738 43.028 21.638 42.828 21.538L39.028 17.738C38.728 17.438 38.628 16.938 38.928 16.638C39.228 16.338 39.628 16.238 40.028 16.438C40.128 16.438 40.128 16.538 40.228 16.638L44.028 20.438C44.328 20.738 44.328 21.238 44.028 21.538C43.828 21.738 43.628 21.738 43.428 21.738Z" fill="white"/>
<path d="M40.328 29.838C40.128 29.838 39.928 29.738 39.728 29.638L33.428 23.338C33.128 23.038 33.228 22.538 33.628 22.238C33.928 22.038 34.328 22.038 34.528 22.238L40.828 28.538C41.128 28.838 41.128 29.338 40.828 29.638C40.728 29.738 40.528 29.838 40.328 29.838Z" fill="white"/>
<path d="M32.2279 33.038C32.0279 33.038 31.8279 32.938 31.6279 32.838L27.8279 29.038C27.5279 28.738 27.6279 28.238 28.0279 27.938C28.3279 27.738 28.7279 27.738 28.9279 27.938L32.7279 31.738C33.0279 32.038 33.0279 32.538 32.7279 32.838C32.6279 32.938 32.4279 33.038 32.2279 33.038Z" fill="white"/>
<path d="M29.1279 41.038C28.9279 41.038 28.7279 40.938 28.5279 40.838L22.2279 34.538C21.9279 34.238 21.8279 33.838 22.0279 33.438C22.3279 33.138 22.7279 33.038 23.1279 33.238C23.2279 33.238 23.2279 33.338 23.3279 33.438L29.6279 39.738C29.9279 40.038 29.9279 40.538 29.6279 40.838C29.4279 41.038 29.2279 41.038 29.1279 41.038Z" fill="white"/>
<path d="M21.0279 44.238C20.8279 44.238 20.6279 44.138 20.4279 44.038L16.6279 40.238C16.3279 39.938 16.4279 39.438 16.8279 39.138C17.1279 38.938 17.5279 38.938 17.7279 39.138L21.5279 42.938C21.8279 43.238 21.8279 43.738 21.5279 44.038C21.4279 44.138 21.2279 44.238 21.0279 44.238Z" fill="white"/>
</svg>
