<svg width="73" height="73" viewBox="0 0 73 73" fill="none" xmlns="http://www.w3.org/2000/svg">
<path d="M36.2 72.5C26.5 72.5 17.4 68.7 10.6 61.9C3.8 55 0 45.9 0 36.2C0 26.5 3.8 17.4 10.6 10.6C17.5 3.8 26.6 0 36.2 0C45.9 0 55 3.8 61.9 10.6C76 24.7 76 47.7 61.9 61.9C55 68.7 45.9 72.5 36.2 72.5ZM36.2 1.5C27.3 1.5 18.4 4.9 11.6 11.7C5.1 18.2 1.5 27 1.5 36.2C1.5 45.4 5.1 54.2 11.7 60.8C18.2 67.4 27 71 36.2 71C45.5 71 54.2 67.4 60.8 60.8C74.3 47.3 74.3 25.2 60.8 11.7C54 4.9 45.1 1.5 36.2 1.5Z" fill="white"/>
<path d="M53.3 53.198C52.7 53.198 52.2 53.398 51.7 53.698L38.9 40.798C38.9 40.798 38.9 40.798 38.8 40.698C40.9 38.098 40.9 34.298 38.8 31.698L47.5 22.998C50 24.898 53.5 24.398 55.3 21.898C57.2 19.398 56.7 15.898 54.2 14.098C51.7 12.298 48.2 12.698 46.4 15.198C44.9 17.198 44.9 19.998 46.4 21.998L37.7 30.698C35.1 28.598 31.3 28.598 28.7 30.698L24.7 26.698C25.6 25.198 25.1 23.298 23.6 22.398C22.1 21.498 20.2 21.998 19.3 23.498C18.4 24.998 18.9 26.898 20.4 27.798C21.4 28.398 22.7 28.398 23.7 27.798L27.7 31.798C26 33.798 25.6 36.598 26.6 38.998L17 44.198C15.6 42.498 13.1 42.298 11.4 43.698C9.7 45.098 9.5 47.598 10.9 49.298C12.3 50.998 14.8 51.198 16.5 49.798C17.7 48.798 18.2 47.098 17.8 45.598L27.4 40.398C28.8 42.498 31.4 43.698 34 43.398L35 47.898C33.4 48.698 32.8 50.598 33.6 52.098C34.4 53.698 36.3 54.298 37.8 53.498C39.4 52.798 40 50.898 39.3 49.298C38.7 48.198 37.7 47.598 36.5 47.498L35.5 42.998C36.3 42.698 37.1 42.298 37.7 41.798C37.7 41.798 37.7 41.798 37.8 41.898L50.6 54.698C49.7 56.198 50.2 58.098 51.7 58.998C53.2 59.898 55.1 59.398 56 57.898C56.9 56.398 56.4 54.498 54.9 53.598C54.4 53.298 53.9 53.198 53.3 53.198ZM13.9 49.098C12.5 49.098 11.4 47.998 11.4 46.598C11.4 45.198 12.5 44.098 13.9 44.098C15.3 44.098 16.4 45.198 16.4 46.598C16.4 47.998 15.3 49.098 13.9 49.098ZM38.1 50.698C38.1 51.598 37.4 52.398 36.4 52.398C35.4 52.398 34.7 51.698 34.7 50.698C34.7 49.698 35.5 48.998 36.4 48.998C37.3 48.998 38.1 49.798 38.1 50.698ZM50.9 14.498C53.1 14.498 55 16.298 55 18.598C55 20.898 53.2 22.698 50.9 22.698C48.7 22.698 46.8 20.898 46.8 18.598C46.8 16.298 48.6 14.498 50.9 14.498ZM20.3 24.998C20.3 24.098 21 23.298 22 23.298C22.9 23.298 23.7 23.998 23.7 24.998C23.7 25.898 23 26.698 22 26.698C21.1 26.698 20.3 25.898 20.3 24.998ZM33.2 41.898C30.1 41.898 27.5 39.398 27.5 36.198C27.5 32.998 30 30.498 33.2 30.498C36.4 30.498 38.9 32.998 38.9 36.198C38.9 39.398 36.3 41.898 33.2 41.898ZM53.3 57.998C52.4 57.998 51.6 57.298 51.6 56.298C51.6 55.398 52.3 54.598 53.3 54.598C54.2 54.598 55 55.298 55 56.298C54.9 57.198 54.2 57.998 53.3 57.998Z" fill="white"/>
<path d="M33.2 32.298C32.8 32.298 32.4 32.598 32.5 33.098C32.5 33.498 32.8 33.798 33.2 33.798C34.6 33.798 35.7 34.898 35.7 36.298C35.7 36.698 36 36.998 36.4 36.998C36.8 36.998 37.2 36.698 37.2 36.298C37.2 34.098 35.4 32.298 33.2 32.298Z" fill="white"/>
<path d="M50.9 17.698C51.4 17.698 51.8 18.098 51.8 18.598C51.8 18.998 52.1 19.398 52.6 19.398C53.1 19.398 53.4 19.098 53.4 18.598C53.4 17.298 52.3 16.198 51 16.198C50.6 16.198 50.2 16.498 50.2 16.998C50.1 17.398 50.5 17.698 50.9 17.698Z" fill="white"/>
</svg>
