<svg width="51" height="71" viewBox="0 0 51 71" fill="none" xmlns="http://www.w3.org/2000/svg">
<path d="M25.563 0.979004C11.963 0.979004 0.963013 11.979 0.963013 25.579C0.963013 30.179 2.26302 34.579 4.66302 38.479L24.163 69.979C24.563 70.579 25.163 70.979 25.863 70.979C26.563 70.979 27.263 70.579 27.563 69.979L46.563 38.179C53.563 26.479 49.663 11.379 38.063 4.379C34.363 2.179 30.063 0.979004 25.563 0.979004ZM43.263 36.079L25.963 64.979L8.16302 36.379C2.16302 26.779 5.16301 14.079 14.863 8.07901C24.563 2.07901 37.163 5.079 43.163 14.779C47.063 21.279 47.163 29.579 43.263 36.079Z" fill="white"/>
<path d="M25.665 13.281C18.865 13.281 13.365 18.781 13.365 25.581C13.365 32.381 18.865 37.881 25.665 37.881C32.465 37.881 37.965 32.381 37.965 25.581C37.865 18.781 32.365 13.281 25.665 13.281ZM25.665 33.881C21.165 33.881 17.465 30.181 17.465 25.681C17.465 21.181 21.165 17.481 25.665 17.481C30.165 17.481 33.865 21.181 33.865 25.681C33.865 30.181 30.165 33.881 25.665 33.881Z" fill="white"/>
</svg>
